<?xml version="1.0" encoding="UTF-8" standalone="no"?>
<!-- Created with Inkscape (http://www.inkscape.org/) -->

<svg
   width="95.261124mm"
   height="22.577801mm"
   viewBox="0 0 95.261124 22.577801"
   version="1.1"
   id="svg1"
   inkscape:version="1.4 (86a8ad7, 2024-10-11)"
   sodipodi:docname="Ice Info Logo.svg"
   xmlns:inkscape="http://www.inkscape.org/namespaces/inkscape"
   xmlns:sodipodi="http://sodipodi.sourceforge.net/DTD/sodipodi-0.dtd"
   xmlns="http://www.w3.org/2000/svg"
   xmlns:svg="http://www.w3.org/2000/svg">
  <sodipodi:namedview
     id="namedview1"
     pagecolor="#ffffff"
     bordercolor="#000000"
     borderopacity="0.25"
     inkscape:showpageshadow="2"
     inkscape:pageopacity="0.0"
     inkscape:pagecheckerboard="0"
     inkscape:deskcolor="#d1d1d1"
     inkscape:document-units="mm"
     inkscape:zoom="1.4378367"
     inkscape:cx="120.66739"
     inkscape:cy="157.52832"
     inkscape:window-width="1920"
     inkscape:window-height="1009"
     inkscape:window-x="1912"
     inkscape:window-y="-8"
     inkscape:window-maximized="1"
     inkscape:current-layer="layer1" />
  <defs
     id="defs1" />
  <g
     inkscape:label="Layer 1"
     inkscape:groupmode="layer"
     id="layer1">
    <g
       id="text1"
       style="font-weight:bold;font-size:22.5778px;font-family:'Segoe UI';-inkscape-font-specification:'Segoe UI Bold';fill:#ffffff;stroke-width:0.264583"
       aria-label="IceInfo">
      <path
         style="font-weight:normal;font-family:'Font Awesome 6 Pro';-inkscape-font-specification:'Font Awesome 6 Pro';fill:#ec0016"
         d="M 2.1166688,11.2889 Q 2.2048634,7.4083404 4.8066021,4.8066016 v 0 0 Q 7.4083409,2.2048629 11.2889,2.1166683 q 3.88056,0.088195 6.482299,2.6899333 2.601738,2.6017388 2.689933,6.4822984 v 10.230566 0 q 0.08819,0.97014 1.058334,1.058334 0.97014,-0.08819 1.058335,-1.058334 V 11.2889 v 0 Q 22.533703,8.1138967 21.034396,5.6003524 19.535089,3.042711 16.977448,1.5434039 14.463904,0.04409679 11.2889,-4.7683716e-7 8.1138971,0.04409679 5.6003529,1.5434039 3.0427114,3.042711 1.5434043,5.6003524 0.04409727,8.1138967 0,11.2889 v 10.230566 0 q 0.08819453,0.97014 1.0583344,1.058334 0.9701399,-0.08819 1.0583344,-1.058334 z M 15.522238,9.1722311 V 11.2889 9.1722311 11.2889 H 7.0555627 v 0 -2.1166689 0 q 0,-0.6173618 0.3968754,-1.0142372 0.3968754,-0.3968754 1.0142372,-0.3968754 h 5.6444497 v 0 q 0.617362,0 1.014238,0.3968754 0.396875,0.3968754 0.396875,1.0142372 z M 7.0555627,16.227794 v -2.822225 2.822225 -2.822225 h 8.4666753 v 0 2.822225 0 q 0,0.617362 -0.396875,1.014237 -0.396876,0.396875 -1.014238,0.396875 H 8.4666753 v 0 q -0.6173618,0 -1.0142372,-0.396875 Q 7.0555627,16.845156 7.0555627,16.227794 Z M 8.4666753,5.6444497 Q 6.9673682,5.688547 5.9531311,6.6586869 v 0 0 Q 4.9829912,7.672924 4.9388939,9.1722311 v 7.0555629 0 q 0.088195,1.896182 1.5875016,2.954517 l -1.6315989,1.587501 v 0 q -0.6173617,0.749654 0,1.499307 0.7496536,0.617362 1.4993071,0 L 8.907648,19.755575 v 0 h 4.762505 v 0 l 2.513544,2.513544 v 0 q 0.749654,0.617362 1.499307,0 0.617362,-0.749653 0,-1.499307 l -1.631599,-1.587501 v 0 q 1.499307,-1.058335 1.587502,-2.954517 v -7.0555629 0 Q 17.59481,7.672924 16.62467,6.6586869 15.610433,5.688547 14.111125,5.6444497 Z m 4.2333377,9.8777883 q 0,-0.617362 -0.396875,-1.014238 v 0 0 q -0.396876,-0.396875 -1.014238,-0.396875 -0.617361,0 -1.014237,0.396875 -0.3968752,0.396876 -0.3968752,1.014238 0,0.617361 0.3968752,1.014237 0.396876,0.396875 1.014237,0.396875 0.617362,0 1.014238,-0.396875 0.396875,-0.396876 0.396875,-1.014237 z"
         id="path4" />
      <path
         style="fill:#ec0016"
         d="M 27.946643,19.755575 H 24.385789 V 3.9467049 h 3.560854 z m 11.807043,-0.4079 q -1.179602,0.683508 -3.406514,0.683508 -2.601739,0 -4.211289,-1.576477 -1.60955,-1.576477 -1.60955,-4.067973 0,-2.877347 1.719793,-4.5309943 1.730818,-1.6646718 4.619189,-1.6646718 1.995401,0 2.888371,0.5291672 v 2.9545169 q -1.091407,-0.815799 -2.436374,-0.815799 -1.499307,0 -2.381252,0.881945 -0.870921,0.870921 -0.870921,2.414325 0,1.499307 0.837848,2.359204 0.837848,0.848872 2.304082,0.848872 1.300869,0 2.546617,-0.815799 z M 52.17809,15.103314 h -7.364243 q 0.176389,2.458422 3.097833,2.458422 1.863109,0 3.274222,-0.881945 v 2.513544 q -1.565453,0.837848 -4.067973,0.837848 -2.734031,0 -4.244362,-1.510331 -1.510331,-1.521356 -1.510331,-4.233338 0,-2.811201 1.631598,-4.4538239 1.631599,-1.6426232 4.012852,-1.6426232 2.469447,0 3.814413,1.4662341 1.355991,1.466234 1.355991,3.979778 z m -3.230125,-2.138718 q 0,-2.42535 -1.962328,-2.42535 -0.837848,0 -1.45521,0.694532 -0.606337,0.694532 -0.738629,1.730818 z"
         id="path5" />
      <path
         style="fill:#afb8c9;fill-opacity:1"
         d="M 58.15327,19.755575 H 54.592416 V 3.9467049 h 3.560854 z m 14.155222,0 h -3.472659 v -6.272836 q 0,-2.623787 -1.874134,-2.623787 -0.903994,0 -1.488283,0.694532 -0.584289,0.694531 -0.584289,1.76389 v 6.438201 H 61.405443 V 8.4666748 h 3.483684 v 1.7859392 h 0.0441 q 1.245748,-2.0615471 3.627001,-2.0615471 3.748267,0 3.748267,4.6522621 z M 82.428821,5.7105956 Q 81.756337,5.446012 81.138976,5.446012 q -1.675697,0 -1.675697,1.8190123 v 1.2016505 h 2.579691 v 2.5686662 h -2.579691 v 8.720234 H 75.99062 V 11.035341 H 74.094437 V 8.4666748 H 75.99062 V 7.0665866 q 0,-1.9292555 1.256772,-3.1088574 1.256772,-1.1796019 3.417538,-1.1796019 1.058334,0 1.763891,0.2204864 z m 6.669706,14.3205874 q -2.822225,0 -4.4428,-1.576477 -1.60955,-1.587502 -1.60955,-4.299484 0,-2.800176 1.675696,-4.3766535 1.675696,-1.5875016 4.530994,-1.5875016 2.811201,0 4.409727,1.5875016 1.598526,1.5764775 1.598526,4.1782165 0,2.8112 -1.653648,4.442799 -1.642623,1.631599 -4.508945,1.631599 z m 0.08819,-9.172231 q -1.234723,0 -1.918231,0.848872 -0.683507,0.848872 -0.683507,2.403301 0,3.252173 2.623787,3.252173 2.50252,0 2.50252,-3.340368 0,-3.163978 -2.524569,-3.163978 z"
         id="path6" />
    </g>
  </g>
</svg>
