<?xml version="1.0" encoding="UTF-8" standalone="no"?>
<!-- Created with Inkscape (http://www.inkscape.org/) -->

<svg
   width="73.519958mm"
   height="21.026508mm"
   viewBox="0 0 73.519958 21.026508"
   version="1.1"
   id="svg1"
   inkscape:version="1.4 (86a8ad7, 2024-10-11)"
   sodipodi:docname="Sophia Logo - Inverted.svg"
   xml:space="preserve"
   xmlns:inkscape="http://www.inkscape.org/namespaces/inkscape"
   xmlns:sodipodi="http://sodipodi.sourceforge.net/DTD/sodipodi-0.dtd"
   xmlns="http://www.w3.org/2000/svg"
   xmlns:svg="http://www.w3.org/2000/svg"><sodipodi:namedview
     id="namedview1"
     pagecolor="#4e494e"
     bordercolor="#000000"
     borderopacity="0.25"
     inkscape:showpageshadow="2"
     inkscape:pageopacity="0.0"
     inkscape:pagecheckerboard="0"
     inkscape:deskcolor="#d1d1d1"
     inkscape:document-units="mm"
     inkscape:zoom="4"
     inkscape:cx="137.875"
     inkscape:cy="38.125"
     inkscape:window-width="1920"
     inkscape:window-height="1009"
     inkscape:window-x="1912"
     inkscape:window-y="-8"
     inkscape:window-maximized="1"
     inkscape:current-layer="layer1" /><defs
     id="defs1"><linearGradient
       id="swatch12"
       inkscape:swatch="solid"><stop
         style="stop-color:#f472b6;stop-opacity:1;"
         offset="0"
         id="stop12" /></linearGradient></defs><g
     inkscape:label="Layer 1"
     inkscape:groupmode="layer"
     id="layer1"
     transform="translate(-0.002793,-0.00279261)"><g
       id="text1"
       style="font-size:22.5778px;font-family:'Radio Space Bold';-inkscape-font-specification:'Radio Space Bold, ';stroke:#f472b6"
       aria-label="Sophia"><g
         id="path3"><path
           style="fill:#f472b6;stroke:none;stroke-linecap:round;stroke-linejoin:round;paint-order:stroke markers fill"
           d="m 3.7539063,0.00195313 c -1.1514428,0 -2.0839965,0.22986809 -2.7519532,0.76562499 C 0.33399646,1.303335 0.00195313,2.1363898 0.00195313,3.0996094 v 3.3183593 c 0,0.9588337 0.31683491,1.7815976 0.96679687,2.3085938 C 1.618712,9.2535587 2.524449,9.46875 3.640625,9.46875 h 5.0351563 c 0.1577716,0 0.2203148,0.018932 0.2910156,0.033203 v 1.9824219 c -0.062767,0.01392 -0.1262167,0.0332 -0.2910156,0.0332 H 0.52539062 a 0.50005,0.50005 0 0 0 -0.49999999,0.5 V 14.75 a 0.50005,0.50005 0 0 0 0.49999999,0.5 H 8.9238281 c 1.1391119,0 2.0663529,-0.222306 2.7324219,-0.755859 0.666069,-0.533554 0.996094,-1.368656 0.996094,-2.341797 V 8.8339844 c 0,-0.9389823 -0.316832,-1.7507763 -0.958985,-2.28125 C 11.051207,6.0222606 10.154388,5.7837995 9.0488281,5.7597656 a 0.50005,0.50005 0 0 0 -0.011719,0 H 4.0019531 c -0.1620713,0 -0.2144838,-0.013546 -0.2890625,-0.025391 v -1.96875 c 0.061388,-0.013114 0.1176886,-0.03125 0.2890625,-0.03125 h 8.1503909 a 0.50005,0.50005 0 0 0 0.5,-0.5 V 0.50195312 a 0.50005,0.50005 0 0 0 -0.5,-0.49999999 z m 0,0.99999997 H 11.652344 V 2.734375 H 4.0019531 c -0.3056558,0 -0.5528441,0.020853 -0.796875,0.1269531 C 2.9610473,2.9674285 2.7128906,3.2779964 2.7128906,3.5742188 v 2.4140624 c 0,0.1597389 0.072791,0.3448314 0.1816407,0.4609375 0.1088494,0.1161062 0.2308859,0.1749074 0.3457031,0.2148438 0.2296343,0.079873 0.4630074,0.095703 0.7617187,0.095703 h 5.0234375 c 0.9715972,0.021122 1.6328704,0.2350173 2.0292974,0.5625 0.396426,0.3274827 0.597656,0.7799437 0.597656,1.5117188 v 3.3183596 c 0,0.765349 -0.209074,1.230499 -0.621094,1.560547 C 10.61923,14.042938 9.9296071,14.25 8.9238281,14.25 H 1.0253906 v -1.732422 h 7.6503907 c 0.2958765,0 0.5431793,-0.02203 0.7851562,-0.125 0.2419769,-0.102969 0.5058594,-0.400001 0.5058594,-0.71289 V 9.2636719 C 9.9667969,9.0935163 9.886372,8.9136491 9.78125,8.8007813 9.676128,8.6879134 9.5601772,8.626022 9.4453125,8.5820313 9.2155832,8.4940498 8.9716578,8.46875 8.6757813,8.46875 H 3.640625 C 2.6570655,8.46875 1.9938707,8.2688901 1.5996094,7.9492187 1.2053481,7.6295474 1.0019531,7.175048 1.0019531,6.4179687 V 3.0996094 c 0,-0.7526933 0.2111754,-1.219246 0.6269531,-1.5527344 C 2.044684,1.2133866 2.7378801,1.0019531 3.7539063,1.0019531 Z"
           id="path6" /><path
           style="fill:#ffffff;stroke:none;stroke-linecap:round;stroke-linejoin:round;paint-order:stroke markers fill"
           d="M 9.0372017,6.2601318 H 4.0023521 c -0.5418672,0 -0.790223,-0.090311 -0.790223,-0.2709336 V 3.5733735 c 0,-0.225778 0.2483558,-0.338667 0.790223,-0.338667 H 12.152938 V 0.50279261 H 3.7539963 c -2.1674689,0 -3.2512033,0.88053419 -3.2512033,2.59644709 v 3.3189367 c 0,1.7159129 1.0385788,2.5512915 3.1383143,2.5512915 h 5.0348496 c 0.5192894,0 0.790223,0.112889 0.790223,0.2935114 v 2.4158247 c 0,0.225778 -0.2709336,0.338667 -0.790223,0.338667 H 0.5253708 v 2.731914 h 8.3989419 c 2.1448913,0 3.2286253,-0.857957 3.2286253,-2.596447 V 8.8340011 c 0,-1.6707573 -1.038579,-2.5287137 -3.1157363,-2.5738693 z"
           id="path7" /></g><g
         id="path4"><path
           style="fill:#f472b6;fill-opacity:0;stroke:none;stroke-linecap:round;stroke-linejoin:round;paint-order:stroke markers fill"
           d="m 17.210937,5.9863281 c -1.14797,0 -2.069995,0.2149055 -2.734374,0.7324219 -0.66438,0.5175164 -0.994141,1.332203 -0.994141,2.2734375 v 3.2519535 c 0,0.941234 0.329761,1.755921 0.994141,2.273437 0.664379,0.517517 1.586404,0.732422 2.734374,0.732422 h 5.869141 c 1.147971,0 2.07462,-0.21438 2.744141,-0.730469 0.66952,-0.516088 1.007812,-1.331904 1.007812,-2.27539 V 8.9921875 c 0,-0.9434867 -0.338292,-1.759302 -1.007812,-2.2753906 -0.669521,-0.5160887 -1.59617,-0.7304688 -2.744141,-0.7304688 z m 0,1 h 5.869141 c 1.019499,0 1.718599,0.2021944 2.132813,0.5214844 0.414214,0.31929 0.61914,0.7571044 0.61914,1.484375 v 3.2519535 c 0,0.72727 -0.204926,1.163131 -0.61914,1.482422 C 24.798677,14.045853 24.099576,14.25 23.080078,14.25 h -5.869141 c -1.019498,0 -1.713027,-0.203622 -2.121093,-0.521484 -0.408067,-0.317863 -0.607422,-0.754853 -0.607422,-1.484375 V 8.9921875 c 0,-0.7295228 0.199355,-1.1665128 0.607422,-1.484375 0.408066,-0.3178622 1.101595,-0.5214844 2.121093,-0.5214844 z m 0.248047,1.640625 c -0.305655,0 -0.554797,0.020853 -0.798828,0.1269532 -0.244031,0.1061003 -0.492187,0.4166681 -0.492187,0.7128906 v 2.3242191 c 0,0.148111 0.05377,0.325271 0.15625,0.455078 0.102479,0.129807 0.231865,0.206304 0.353515,0.253906 0.243302,0.0952 0.482539,0.107422 0.78125,0.107422 h 5.351563 c 0.298711,0 0.541377,-0.01405 0.785156,-0.105469 0.12189,-0.04571 0.252198,-0.116867 0.359375,-0.24414 0.107177,-0.127274 0.167969,-0.310353 0.167969,-0.466797 V 9.4667969 C 24.123047,9.1539083 23.856035,8.8519612 23.611328,8.75 23.366621,8.6480388 23.116203,8.6269531 22.810547,8.6269531 Z m 0,1 h 5.351563 c 0.177432,0 0.246912,0.020618 0.3125,0.035156 v 1.9160156 c -0.07134,0.01291 -0.137266,0.0293 -0.3125,0.0293 h -5.351563 c -0.170096,0 -0.22401,-0.01557 -0.291015,-0.02734 V 9.6582031 c 0.06095,-0.01312 0.118497,-0.03125 0.291015,-0.03125 z"
           id="path8" /><path
           style="fill:#ffffff;fill-opacity:0;stroke:none;stroke-linecap:round;stroke-linejoin:round;paint-order:stroke markers fill"
           d="m 23.080609,14.749385 h -5.870228 c -2.167469,0 -3.228626,-0.835379 -3.228626,-2.506136 V 8.9920457 c 0,-1.6707573 1.061157,-2.5061359 3.228626,-2.5061359 h 5.870228 c 2.167469,0 3.251203,0.8353786 3.251203,2.5061359 v 3.2512033 c 0,1.670757 -1.083734,2.506136 -3.251203,2.506136 z m -5.621872,-2.641603 h 5.350939 c 0.541867,0 0.8128,-0.09031 0.8128,-0.316089 V 9.4661795 c 0,-0.225778 -0.270933,-0.338667 -0.8128,-0.338667 h -5.350939 c -0.541867,0 -0.790223,0.112889 -0.790223,0.338667 v 2.3255135 c 0,0.225778 0.248356,0.316089 0.790223,0.316089 z"
           id="path9" /></g><g
         id="path5"><path
           style="fill:#f472b6;stroke:none;stroke-linecap:round;stroke-linejoin:round;paint-order:stroke markers fill"
           d="m 42.294922,0.00195313 a 0.50005,0.50005 0 0 0 -0.5,0.49999999 V 14.75 a 0.50005,0.50005 0 0 0 0.5,0.5 h 2.708984 a 0.50005,0.50005 0 0 0 0.5,-0.5 V 9.4472656 h 5.619141 c 0.178899,0 0.25247,0.02309 0.3125,0.039063 V 14.75 a 0.50005,0.50005 0 0 0 0.5,0.5 h 2.708984 a 0.50005,0.50005 0 0 0 0.5,-0.5 V 8.8339844 c 0,-0.9632197 -0.332043,-1.7962744 -1,-2.3320313 C 53.476574,5.9661963 52.544021,5.7382812 51.392578,5.7382812 H 45.503906 V 0.50195312 a 0.50005,0.50005 0 0 0 -0.5,-0.49999999 z m 13.974609,0 a 0.50005,0.50005 0 0 0 -0.5,0.49999999 V 3.234375 a 0.50005,0.50005 0 0 0 0.5,0.5 h 2.6875 a 0.50005,0.50005 0 0 0 0.5,-0.5 V 0.50195312 a 0.50005,0.50005 0 0 0 -0.5,-0.49999999 z M 42.794922,1.0019531 h 1.708984 v 5.2363281 a 0.50005,0.50005 0 0 0 0.5,0.5 h 6.388672 c 1.016026,0 1.711175,0.2114335 2.126953,0.5449219 0.415778,0.3334885 0.625,0.798088 0.625,1.5507813 V 14.25 H 52.435547 V 9.3085938 c 0,-0.3128893 -0.25107,-0.6084005 -0.496094,-0.7207032 -0.245024,-0.1123026 -0.503806,-0.140625 -0.816406,-0.140625 h -6.119141 a 0.50005,0.50005 0 0 0 -0.5,0.5 V 14.25 h -1.708984 z m 13.974609,0 h 1.6875 V 2.734375 h -1.6875 z m -0.521484,4.7363281 a 0.50005,0.50005 0 0 0 -0.5,0.5 V 14.75 a 0.50005,0.50005 0 0 0 0.5,0.5 h 2.708984 a 0.50005,0.50005 0 0 0 0.5,-0.5 V 6.2382812 a 0.50005,0.50005 0 0 0 -0.5,-0.5 z M 28.138672,5.9628906 a 0.50005,0.50005 0 0 0 -0.5,0.5 V 9.171875 a 0.50005,0.50005 0 0 0 0.5,0.5 h 8.828125 c 0.178899,0 0.25247,0.02309 0.3125,0.039063 v 1.7812505 c -0.08356,0.0108 -0.145739,0.02539 -0.3125,0.02539 h -8.828125 a 0.50005,0.50005 0 0 0 -0.5,0.5 v 8.511719 a 0.50005,0.50005 0 0 0 0.5,0.5 h 2.685547 a 0.50005,0.50005 0 0 0 0.5,-0.5 V 15.25 h 6.02539 a 0.50005,0.50005 0 0 0 0.0059,0 c 1.106481,-0.01203 2.009413,-0.242826 2.658203,-0.769531 0.64879,-0.526706 0.974609,-1.341969 0.974609,-2.283203 V 9.0605469 c 0,-0.9632196 -0.332043,-1.7962743 -1,-2.3320313 -0.667956,-0.5357569 -1.60051,-0.765625 -2.751953,-0.765625 z m 35.761719,0.023437 c -1.147971,0 -2.069996,0.2149054 -2.734375,0.7324219 -0.664379,0.5175165 -0.994141,1.3322031 -0.994141,2.2734375 v 3.2519535 c 0,0.941234 0.329762,1.755921 0.994141,2.273437 C 61.830395,15.035095 62.75242,15.25 63.900391,15.25 h 4.652343 a 0.50005,0.50005 0 0 0 0.5,-0.5 v -2.642578 a 0.50005,0.50005 0 0 0 -0.5,-0.5 h -4.380859 c -0.175234,0 -0.241157,-0.01639 -0.3125,-0.0293 V 9.6621094 c 0.06559,-0.014538 0.135068,-0.035156 0.3125,-0.035156 H 69.8125 V 14.75 a 0.50005,0.50005 0 0 0 0.5,0.5 h 2.710937 a 0.50005,0.50005 0 0 0 0.5,-0.5 V 6.4863281 a 0.50005,0.50005 0 0 0 -0.5,-0.5 z m -7.152344,0.7519531 h 1.708984 V 14.25 H 56.748047 Z M 28.638672,6.9628906 h 8.597656 c 1.016026,0 1.711176,0.2114335 2.126953,0.5449219 0.415778,0.3334884 0.625,0.800041 0.625,1.5527344 v 3.1367191 c 0,0.729523 -0.20439,1.180253 -0.605469,1.505859 -0.401078,0.325606 -1.068387,0.536324 -2.039062,0.546875 h -6.519531 a 0.50005,0.50005 0 0 0 -0.5,0.5 v 5.279297 h -1.685547 v -7.511719 h 8.328125 c 0.291766,0 0.520419,-0.0098 0.748047,-0.07617 0.113814,-0.0332 0.236665,-0.08198 0.355468,-0.193359 0.118804,-0.111379 0.208985,-0.308362 0.208985,-0.478516 V 9.5332031 c 0,-0.3128893 -0.25107,-0.6064473 -0.496094,-0.71875 C 37.538179,8.7021505 37.279397,8.671875 36.966797,8.671875 h -8.328125 z m 35.261719,0.023437 h 8.623046 V 14.25 H 70.8125 V 9.1269531 a 0.50005,0.50005 0 0 0 -0.5,-0.5 h -6.140625 c -0.305656,0 -0.556075,0.021086 -0.800781,0.1230469 -0.244707,0.1019611 -0.511719,0.4039076 -0.511719,0.7167969 v 2.3242191 c 0,0.156444 0.06079,0.339523 0.167969,0.466797 0.107177,0.127273 0.237485,0.198432 0.359375,0.24414 0.243779,0.09142 0.486445,0.105469 0.785156,0.105469 h 3.880859 V 14.25 h -4.152343 c -1.019499,0 -1.711075,-0.203622 -2.119141,-0.521484 -0.408066,-0.317863 -0.609375,-0.754853 -0.609375,-1.484375 V 8.9921875 c 0,-0.7295229 0.201309,-1.1665129 0.609375,-1.484375 0.408066,-0.3178621 1.099642,-0.5214844 2.119141,-0.5214844 z"
           id="path10" /><path
           style="fill:#ffffff;stroke:none;stroke-linecap:round;stroke-linejoin:round;paint-order:stroke markers fill"
           d="m 37.349798,14.749385 h -6.524985 v 5.779917 h -2.686758 v -8.511831 h 8.82792 c 0.541867,0 0.812801,-0.06773 0.812801,-0.248356 V 9.5339129 c 0,-0.225778 -0.270934,-0.3612448 -0.812801,-0.3612448 h -8.82792 V 6.463332 h 9.098854 c 2.167469,0 3.251203,0.8805342 3.251203,2.5964471 v 3.1383139 c 0,1.670758 -1.061157,2.528714 -3.138314,2.551292 z M 42.294353,0.50279261 h 2.709336 V 6.237554 h 6.389517 c 2.167469,0 3.251204,0.8805342 3.251204,2.5964471 V 14.749385 H 51.935074 V 9.3081349 c 0,-0.225778 -0.270934,-0.3612448 -0.812801,-0.3612448 H 45.003689 V 14.749385 H 42.294353 Z M 56.247456,6.237554 h 2.709336 v 8.511831 H 56.247456 Z M 58.956792,0.50279261 V 3.2347065 H 56.270034 V 0.50279261 Z M 73.022753,14.749385 H 70.313417 V 9.1275125 h -6.141162 c -0.541867,0 -0.812801,0.112889 -0.812801,0.338667 v 2.3255135 c 0,0.225778 0.270934,0.316089 0.812801,0.316089 h 4.380093 v 2.641603 h -4.651027 c -2.167469,0 -3.228625,-0.835379 -3.228625,-2.506136 V 8.9920457 c 0,-1.6707573 1.061156,-2.5061359 3.228625,-2.5061359 h 9.121432 z"
           id="path11" /></g></g><g
       inkscape:label="Layer 1"
       id="layer1-2"
       transform="matrix(0.74527408,0,0,0.74527408,12.271105,5.175817)"
       style="stroke:#f472b6;stroke-width:1.34179;stroke-linecap:round;stroke-linejoin:round;stroke-dasharray:none;stroke-dashoffset:0;stroke-opacity:1;paint-order:stroke markers fill"><rect
         style="fill:#ffffff;fill-opacity:1;stroke:#f472b6;stroke-width:1.34179;stroke-linecap:round;stroke-linejoin:round;stroke-dasharray:none;stroke-dashoffset:0;stroke-opacity:1;paint-order:stroke markers fill"
         id="rect2"
         width="2.5325265"
         height="5.6393423"
         x="3.0277455"
         y="0.83511275"
         inkscape:label="rect2" /><rect
         style="fill:#ffffff;fill-opacity:1;stroke:#f472b6;stroke-width:1.34179;stroke-linecap:round;stroke-linejoin:round;stroke-dasharray:none;stroke-dashoffset:0;stroke-opacity:1;paint-order:stroke markers fill"
         id="rect2-8"
         width="2.5325265"
         height="5.6393423"
         x="15.692957"
         y="0.83511275"
         inkscape:label="rect2" /><path
         id="rect2-8-5-7"
         style="fill:#ffffff;stroke-width:1.34179;stroke-linejoin:round;stroke-dasharray:none;fill-opacity:1;stroke:#f472b6;stroke-opacity:1"
         inkscape:label="rect2"
         d="m 8.059849,12.904788 h 5.066397 v 1.409324 H 8.059849 Z m 5.066397,-1.409323 h 1.2666 v 1.409323 h -1.2666 z m -6.3329963,0 H 8.059849 v 1.409323 H 6.7932497 Z" /></g></g></svg>
